<svg width="545" height="364" viewBox="0 0 545 364" fill="none" xmlns="http://www.w3.org/2000/svg">
<path d="M352 217.434L508.963 126.811" stroke="#F4BB40" stroke-width="71" stroke-linecap="round"/>
<path d="M352.018 36L508.982 126.623" stroke="#459959" stroke-width="71" stroke-linecap="round"/>
<path d="M211.811 2.46483L138.13 43.5432L85.5811 37.4545L114.206 53.2308L105.268 61.3011L26.7082 53.9161L85.8434 70.9535L69.934 82.5785C76.3119 79.7284 130.166 111.941 156.296 128.403L187.15 109.661L143.994 89.9987L209.551 96.9854L239.429 81.2509L155.767 60.9056L247.858 72.1847C282.222 16.3138 238.145 2.42525 211.811 2.46483Z" fill="#EA4137"/>
<path d="M93.5965 81.5665L174.055 130.81L112.009 155.48L198.237 145.834L235.744 169.147L297.729 170.482L255.873 186.585C281.938 239.558 238.119 252.385 212.951 252.176L145.774 213.22L210.786 190.115L121.081 198.685L78.2156 168.756L1.66873 170.108L65.9553 157.489C53.288 157.383 30.953 147.933 42.9514 110.983C54.9497 74.0326 81.7141 75.976 93.5965 81.5665Z" fill="#4284F6"/>
<path d="M210.337 359.756C210.337 361.184 207.141 361.898 200.749 361.898C194.357 361.898 190.889 361.388 190.345 360.368L173.311 328.544V360.266C173.311 361.49 170.149 362.102 163.825 362.102C157.569 362.102 154.441 361.49 154.441 360.266V292.028C154.441 291.008 157.127 290.498 162.499 290.498C164.607 290.498 167.055 290.702 169.843 291.11C172.699 291.45 174.433 292.13 175.045 293.15L191.365 324.566V292.538C191.365 291.246 194.527 290.6 200.851 290.6C207.175 290.6 210.337 291.246 210.337 292.538V359.756Z" fill="#04C923"/>
<path d="M223.233 337.112C224.525 338.132 226.735 339.526 229.863 341.294C233.059 343.062 236.085 343.946 238.941 343.946C241.865 343.946 243.327 342.824 243.327 340.58C243.327 339.56 242.919 338.676 242.103 337.928C241.287 337.112 239.791 336.194 237.615 335.174C235.439 334.154 233.807 333.372 232.719 332.828C231.631 332.216 230.169 331.264 228.333 329.972C226.565 328.612 225.205 327.218 224.253 325.79C221.533 321.914 220.173 316.984 220.173 311C220.173 305.016 222.383 299.984 226.803 295.904C231.291 291.756 237.139 289.682 244.347 289.682C249.243 289.682 253.765 290.226 257.913 291.314C262.061 292.334 264.203 293.694 264.339 295.394C264.339 295.598 264.339 295.802 264.339 296.006C264.339 298.386 263.591 301.412 262.095 305.084C260.599 308.688 259.545 310.694 258.933 311.102C254.581 308.858 250.671 307.736 247.203 307.736C243.803 307.736 242.103 308.96 242.103 311.408C242.103 312.904 243.361 314.23 245.877 315.386C246.421 315.658 247.203 316.032 248.223 316.508C249.243 316.984 250.399 317.562 251.691 318.242C253.051 318.854 254.479 319.67 255.975 320.69C257.539 321.642 259.205 322.934 260.973 324.566C264.577 327.966 266.379 332.454 266.379 338.03C266.379 345.306 264.373 351.256 260.361 355.88C256.349 360.504 250.161 362.884 241.797 363.02C237.717 363.02 234.011 362.68 230.679 362C227.415 361.32 224.559 359.994 222.111 358.022C219.663 356.05 218.439 353.67 218.439 350.882C218.439 348.094 218.949 345.34 219.969 342.62C220.989 339.832 222.077 337.996 223.233 337.112Z" fill="#03C5EF"/>
<path d="M310.265 293.966C311.149 291.586 315.501 290.396 323.321 290.396C325.293 290.396 327.605 290.532 330.257 290.804C332.977 291.076 334.235 291.416 334.031 291.824L312.815 334.46V359.348C312.815 360.504 310.945 361.32 307.205 361.796C305.301 362.068 303.431 362.204 301.595 362.204C299.759 362.204 297.923 362.102 296.087 361.898C292.347 361.422 290.477 360.572 290.477 359.348V335.072L268.547 292.028C268.275 291.62 269.669 291.246 272.729 290.906C275.789 290.498 278.373 290.294 280.481 290.294C288.845 290.294 293.435 291.518 294.251 293.966L301.697 314.774L310.265 293.966Z" fill="#ECE32F"/>
<path d="M340.175 337.112C341.467 338.132 343.677 339.526 346.805 341.294C350.001 343.062 353.027 343.946 355.883 343.946C358.807 343.946 360.269 342.824 360.269 340.58C360.269 339.56 359.861 338.676 359.045 337.928C358.229 337.112 356.733 336.194 354.557 335.174C352.381 334.154 350.749 333.372 349.661 332.828C348.573 332.216 347.111 331.264 345.275 329.972C343.507 328.612 342.147 327.218 341.195 325.79C338.475 321.914 337.115 316.984 337.115 311C337.115 305.016 339.325 299.984 343.745 295.904C348.233 291.756 354.081 289.682 361.289 289.682C366.185 289.682 370.707 290.226 374.855 291.314C379.003 292.334 381.145 293.694 381.281 295.394C381.281 295.598 381.281 295.802 381.281 296.006C381.281 298.386 380.533 301.412 379.037 305.084C377.541 308.688 376.487 310.694 375.875 311.102C371.523 308.858 367.613 307.736 364.145 307.736C360.745 307.736 359.045 308.96 359.045 311.408C359.045 312.904 360.303 314.23 362.819 315.386C363.363 315.658 364.145 316.032 365.165 316.508C366.185 316.984 367.341 317.562 368.633 318.242C369.993 318.854 371.421 319.67 372.917 320.69C374.481 321.642 376.147 322.934 377.915 324.566C381.519 327.966 383.321 332.454 383.321 338.03C383.321 345.306 381.315 351.256 377.303 355.88C373.291 360.504 367.103 362.884 358.739 363.02C354.659 363.02 350.953 362.68 347.621 362C344.357 361.32 341.501 359.994 339.053 358.022C336.605 356.05 335.381 353.67 335.381 350.882C335.381 348.094 335.891 345.34 336.911 342.62C337.931 339.832 339.019 337.996 340.175 337.112Z" fill="#FFA103"/>
<path d="M425.064 292.64C425.064 291.28 428.736 290.6 436.08 290.6C443.492 290.6 447.198 291.28 447.198 292.64V339.458C447.198 346.394 444.716 352.072 439.752 356.492C434.788 360.844 427.92 363.02 419.148 363.02C410.444 363.02 403.338 360.776 397.83 356.288C392.39 351.732 389.67 345.612 389.67 337.928V292.742C389.67 291.382 393.342 290.702 400.686 290.702C408.098 290.702 411.804 291.382 411.804 292.742V338.744C411.804 340.104 412.518 341.192 413.946 342.008C415.442 342.824 417.006 343.232 418.638 343.232C420.27 343.232 421.732 342.858 423.024 342.11C424.384 341.362 425.064 340.24 425.064 338.744V292.64Z" fill="#FE012C"/>
</svg>
