<svg width="545" height="401" viewBox="0 0 545 401" fill="none" xmlns="http://www.w3.org/2000/svg">
<path d="M352 217.434L508.963 126.811" stroke="#F4BB40" stroke-width="71" stroke-linecap="round"/>
<path d="M352.018 36L508.982 126.623" stroke="#459959" stroke-width="71" stroke-linecap="round"/>
<path d="M211.811 2.46483L138.13 43.5432L85.5811 37.4545L114.206 53.2308L105.268 61.3011L26.7082 53.9161L85.8434 70.9535L69.934 82.5785C76.3119 79.7284 130.166 111.941 156.296 128.403L187.15 109.661L143.994 89.9987L209.551 96.9854L239.429 81.2509L155.767 60.9056L247.858 72.1847C282.222 16.3138 238.145 2.42525 211.811 2.46483Z" fill="#EA4137"/>
<path d="M93.5965 81.5665L174.055 130.81L112.009 155.48L198.237 145.834L235.744 169.147L297.729 170.482L255.873 186.585C281.938 239.558 238.119 252.385 212.951 252.176L145.774 213.22L210.786 190.115L121.081 198.685L78.2156 168.756L1.66873 170.108L65.9553 157.489C53.288 157.383 30.953 147.933 42.9514 110.983C54.9497 74.0326 81.7141 75.976 93.5965 81.5665Z" fill="#4284F6"/>
<path d="M210.337 375.756C210.337 377.184 207.141 377.898 200.749 377.898C194.357 377.898 190.889 377.388 190.345 376.368L173.311 344.544V376.266C173.311 377.49 170.149 378.102 163.825 378.102C157.569 378.102 154.441 377.49 154.441 376.266V308.028C154.441 307.008 157.127 306.498 162.499 306.498C164.607 306.498 167.055 306.702 169.843 307.11C172.699 307.45 174.433 308.13 175.045 309.15L191.365 340.566V308.538C191.365 307.246 194.527 306.6 200.851 306.6C207.175 306.6 210.337 307.246 210.337 308.538V375.756Z" fill="#04C923"/>
<path d="M223.233 353.112C224.525 354.132 226.735 355.526 229.863 357.294C233.059 359.062 236.085 359.946 238.941 359.946C241.865 359.946 243.327 358.824 243.327 356.58C243.327 355.56 242.919 354.676 242.103 353.928C241.287 353.112 239.791 352.194 237.615 351.174C235.439 350.154 233.807 349.372 232.719 348.828C231.631 348.216 230.169 347.264 228.333 345.972C226.565 344.612 225.205 343.218 224.253 341.79C221.533 337.914 220.173 332.984 220.173 327C220.173 321.016 222.383 315.984 226.803 311.904C231.291 307.756 237.139 305.682 244.347 305.682C249.243 305.682 253.765 306.226 257.913 307.314C262.061 308.334 264.203 309.694 264.339 311.394C264.339 311.598 264.339 311.802 264.339 312.006C264.339 314.386 263.591 317.412 262.095 321.084C260.599 324.688 259.545 326.694 258.933 327.102C254.581 324.858 250.671 323.736 247.203 323.736C243.803 323.736 242.103 324.96 242.103 327.408C242.103 328.904 243.361 330.23 245.877 331.386C246.421 331.658 247.203 332.032 248.223 332.508C249.243 332.984 250.399 333.562 251.691 334.242C253.051 334.854 254.479 335.67 255.975 336.69C257.539 337.642 259.205 338.934 260.973 340.566C264.577 343.966 266.379 348.454 266.379 354.03C266.379 361.306 264.373 367.256 260.361 371.88C256.349 376.504 250.161 378.884 241.797 379.02C237.717 379.02 234.011 378.68 230.679 378C227.415 377.32 224.559 375.994 222.111 374.022C219.663 372.05 218.439 369.67 218.439 366.882C218.439 364.094 218.949 361.34 219.969 358.62C220.989 355.832 222.077 353.996 223.233 353.112Z" fill="#03C5EF"/>
<path d="M310.265 309.966C311.149 307.586 315.501 306.396 323.321 306.396C325.293 306.396 327.605 306.532 330.257 306.804C332.977 307.076 334.235 307.416 334.031 307.824L312.815 350.46V375.348C312.815 376.504 310.945 377.32 307.205 377.796C305.301 378.068 303.431 378.204 301.595 378.204C299.759 378.204 297.923 378.102 296.087 377.898C292.347 377.422 290.477 376.572 290.477 375.348V351.072L268.547 308.028C268.275 307.62 269.669 307.246 272.729 306.906C275.789 306.498 278.373 306.294 280.481 306.294C288.845 306.294 293.435 307.518 294.251 309.966L301.697 330.774L310.265 309.966Z" fill="#ECE32F"/>
<path d="M340.175 353.112C341.467 354.132 343.677 355.526 346.805 357.294C350.001 359.062 353.027 359.946 355.883 359.946C358.807 359.946 360.269 358.824 360.269 356.58C360.269 355.56 359.861 354.676 359.045 353.928C358.229 353.112 356.733 352.194 354.557 351.174C352.381 350.154 350.749 349.372 349.661 348.828C348.573 348.216 347.111 347.264 345.275 345.972C343.507 344.612 342.147 343.218 341.195 341.79C338.475 337.914 337.115 332.984 337.115 327C337.115 321.016 339.325 315.984 343.745 311.904C348.233 307.756 354.081 305.682 361.289 305.682C366.185 305.682 370.707 306.226 374.855 307.314C379.003 308.334 381.145 309.694 381.281 311.394C381.281 311.598 381.281 311.802 381.281 312.006C381.281 314.386 380.533 317.412 379.037 321.084C377.541 324.688 376.487 326.694 375.875 327.102C371.523 324.858 367.613 323.736 364.145 323.736C360.745 323.736 359.045 324.96 359.045 327.408C359.045 328.904 360.303 330.23 362.819 331.386C363.363 331.658 364.145 332.032 365.165 332.508C366.185 332.984 367.341 333.562 368.633 334.242C369.993 334.854 371.421 335.67 372.917 336.69C374.481 337.642 376.147 338.934 377.915 340.566C381.519 343.966 383.321 348.454 383.321 354.03C383.321 361.306 381.315 367.256 377.303 371.88C373.291 376.504 367.103 378.884 358.739 379.02C354.659 379.02 350.953 378.68 347.621 378C344.357 377.32 341.501 375.994 339.053 374.022C336.605 372.05 335.381 369.67 335.381 366.882C335.381 364.094 335.891 361.34 336.911 358.62C337.931 355.832 339.019 353.996 340.175 353.112Z" fill="#FFA103"/>
<path d="M425.064 308.64C425.064 307.28 428.736 306.6 436.08 306.6C443.492 306.6 447.198 307.28 447.198 308.64V355.458C447.198 362.394 444.716 368.072 439.752 372.492C434.788 376.844 427.92 379.02 419.148 379.02C410.444 379.02 403.338 376.776 397.83 372.288C392.39 367.732 389.67 361.612 389.67 353.928V308.742C389.67 307.382 393.342 306.702 400.686 306.702C408.098 306.702 411.804 307.382 411.804 308.742V354.744C411.804 356.104 412.518 357.192 413.946 358.008C415.442 358.824 417.006 359.232 418.638 359.232C420.27 359.232 421.732 358.858 423.024 358.11C424.384 357.362 425.064 356.24 425.064 354.744V308.64Z" fill="#FE012C"/>
</svg>
